<svg xmlns="http://www.w3.org/2000/svg" width="16" height="16" fill="currentColor" class="bi bi-6-circle-fill" viewBox="0 0 255.345 255.345">
  <path d="M252.086,181.513c-1.899,2.714-6.521,2.642-10.351,3.122c1.243-3.056,3.009-5.491,5.633-7.903
		c0.955-0.878,0.57-2.901-0.822-3.114c-7.301-1.116-14.097-0.648-20.989,1.407c0.962-2.754,2.139-5.361,3.819-7.889
		c0.769-1.156-0.254-2.653-1.534-2.674c-0.508-0.008-0.985,0.072-1.486,0.084c7.904-15.458,26.004-40.737,16.428-58.4
		c-6.211-11.456-18.778-13.018-29.892-9.73c-20.41,1.338-33.185,31.834-37.163,48.207c-5.649,0.79-11.194,4.467-14.98,8.517
		c-2.089-4.61-4.991-8.402-8.816-11.607c0.178-0.181,0.328-0.393,0.407-0.67c7.414-26.056,7.661-55.787,10.623-82.688
		c0.813-1.225,0.285-3.314-1.644-3.334c-18.48-0.184-37.119,0.031-55.523,1.867c-0.265-0.055-0.555-0.021-0.855,0.069
		c-0.049,0.005-0.098,0.007-0.147,0.012c-0.108,0.011-0.15,0.099-0.246,0.126c-0.013,0.007-0.024,0.006-0.037,0.013
		c-0.013,0.008-0.025,0.018-0.039,0.026c-0.334,0.116-0.617,0.267-0.79,0.525c-1.955,1.305-3.659,3.105-5.382,4.665
		c-2.114,1.914-4.304,3.765-6.326,5.775c-0.575,0.57-0.359,1.364,0.134,1.831c-0.37,0.293-0.645,0.707-0.59,1.356
		c2.229,26.408,5.303,53.277,11.444,79.11c-4.456-3.123-9.987-5.211-14.714-6.342c-1.196-0.286-2.621,0.833-2.143,2.143
		c2.528,6.938,1.584,14.05-2.58,20.046c0.016-0.266-0.009-0.538-0.14-0.808c-1.297-2.68-2.664-5.083-3.098-8.08
		c-0.268-1.851,0.365-4.493-0.558-6.206c-1.341-2.491-3.44-1.664-5.357-0.493c-0.014-0.224,0.008-0.436-0.069-0.682
		c-5.967-19.137-16.013-51.852-37.518-58.721c-16.201-5.174-31.998,7.732-34.834,23.203c-8.556,22.168,12.964,53.032,26.833,69.344
		c-6.553-0.928-13.744,1.818-18.808,5.655c-1.366,1.035-1.413,3.366,0.505,3.868c7.056,1.847,13.84,4.457,20.553,7.292
		c1.493,0.63,2.756-1.318,1.306-2.234c-5.147-3.25-10.637-5.688-16.34-7.681c4.966-2.493,10.035-2.8,16.037-2.941
		c1.335-0.032,1.755-1.283,1.308-2.217c0.242-0.213,0.422-0.499,0.351-0.908c-0.633-3.646-0.839-7.154-0.55-10.741
		c2.668,2.855,5.673,5.285,9.053,7.37c1.18,0.728,2.341-0.258,2.491-1.43c0.382-2.979,0.89-5.934,1.593-8.854
		c0.52-2.158,1.034-6.483,2.44-8.142c2.134-2.517,3.486,1.24,4.809,3.274c1.391,2.138,2.67,4.202,4.385,6.09
		c0.716,0.788,1.573,0.376,1.971-0.336c0.598,0.571,1.806,0.32,1.874-0.76c0.26-4.176,2.052-7.731,4.926-10.725
		c1.591-1.657,3.449-3.024,5.344-4.309c1.024-0.695,3.102-2.582,4.335-2.712c0.749-0.574,0.831-0.504,0.247,0.211
		c-0.081,0.896-0.088,1.792-0.022,2.689c0.081,1.274,0.291,2.55,0.599,3.786c0.672,2.702,1.803,5.263,3.7,7.312
		c0.638,0.69,1.44,0.601,1.996,0.149c-0.083,0.865,1.129,1.673,1.812,0.873c4.838-5.67,6.826-12.854,5.528-20.022
		c2.825,0.918,5.567,2.025,8.13,3.598c3.158,1.938,5.579,4.659,8.602,6.713c0.692,0.47,1.441,0.198,1.905-0.34
		c0.451,0.106,0.933,0.025,1.155-0.482c1.68-3.843,4.062-6.637,7.376-8.768c0.43,3.277,1.629,6.208,3.761,8.983
		c0.782,1.018,2.334,1.264,3.069,0c1.682-2.89,3.467-5.66,5.573-8.268c0.765-0.941,1.569-1.848,2.387-2.742
		c0.047,0.118,0.021,0.155,0.111,0.319c1.831,2.943,1.901,6.07,4.267,8.741c-0.3,0.532,0.127,1.354,0.916,1.212
		c0.221-0.04,0.391-0.127,0.603-0.175c0,0,0.003-0.001,0.004-0.001c6.971-1.574,9.469-7.311,10.708-13.772
		c4.582,3.53,7.847,7.861,9.871,13.473c0.383,1.061,1.972,1.838,2.832,0.748c3.055-3.871,6.689-7.02,11.557-8.458
		c1.903-0.663,3.865-0.914,5.885-0.754c-0.716,0.474-1.324,1.046-1.827,1.717c-0.815,3.788-3.229,5.607-2.462,9.983
		c0.201,1.145,1.389,1.217,2.164,0.686c-0.069,0.715,0.503,1.542,1.304,1.216c4.291-1.749,7.999-4.188,11.317-7.277
		c0.527,3.001,1.054,6.001,1.583,9.002c0.242,1.377,2.046,1.591,2.935,0.775c2.307-2.118,4.8-3.959,7.655-5.273
		c1.647-0.753,3.351-1.336,5.109-1.746c1.302,0.242,1.292,0.94-0.029,2.094c-0.596,4.011-2.169,6.586-0.718,10.74
		c0.336,0.961,1.364,1.176,2.115,0.829c0.162,0.021,0.307,0.105,0.489,0.036c3.451-1.306,6.896-2.114,10.406-2.561
		c0.212,0.006,0.418-0.025,0.622-0.086c1.642-0.187,3.294-0.317,4.979-0.336c-1.704,2.905-2.863,5.901-3.686,9.343
		c-0.3,1.256,0.882,2.785,2.267,2.267c6.23-2.332,12.389-3.214,18.878-2.72c-2.366,2.825-3.886,5.892-4.934,9.786
		c-0.338,1.257,0.925,2.848,2.299,2.3c3.803-1.515,8.129-0.805,11.562-2.087c-0.615,2.965-1.291,5.917-1.931,8.885
		c-0.503,2.331,3.132,3.302,3.56,0.982c0.859-4.65,1.501-9.318,2.68-13.898C255.791,180.868,253.196,179.927,252.086,181.513z
		 M59.642,169.598c-1.791-3.908-4.524-8.657-7.337-11.707c-1.312-1.422-2.671-2.21-4.461-0.91c-2.358,1.714-3.099,6.694-3.839,9.27
		c-0.99,3.442-1.641,6.943-2.17,10.472c-3.243-2.265-6.148-4.816-8.696-7.929c-0.97-1.185-2.646-0.104-2.75,1.139
		c-0.376,4.487-0.039,8.831,0.994,13.158c-12.197-16.995-38.99-50.568-24.098-70.742c27.731-37.563,50.554,24.597,58.991,44.25
		C62.623,160.105,59.879,164.343,59.642,169.598z M147.357,138.674c-0.705,0.166-1.288,0.809-1.354,1.58
		c-0.469,5.423-0.997,11.484-6.697,14.377c-0.863-1.976-2.026-3.813-2.752-5.852c-0.471-1.325-0.478-3.062-1.14-4.292
		c-0.685-1.272-1.34-1.903-2.816-1.925c-3.662-0.055-7.709,6.774-10.067,11.04c-1.294-2.293-1.896-4.712-1.98-7.519
		c-0.038-1.282-1.394-2.078-2.526-1.449c-4.539,2.52-7.659,6.165-9.539,10.883c-0.904-1.294-2.037-2.455-3.275-3.538
		c-3.112-26.994-7.278-53.808-9.908-80.872c-0.012-0.126-0.07-0.219-0.1-0.332c11.227,0.187,22.506-0.731,33.68-1.72
		c6.209-0.55,14.675-0.122,20.976-2.259C148.295,90.286,144.052,115.295,147.357,138.674z M217.55,165.476
		c-2.906,0.618-5.757,1.493-8.598,2.665c0.107-3.054,0.58-5.491,1.753-8.642c0.268-0.721,0.807-1.381,0.843-2.177
		c0.076-1.717-0.049-3.062-1.814-3.875c-2.186-1.007-6.29,0.948-8.149,1.687c-2.868,1.14-5.392,2.706-7.731,4.598
		c-0.58-3.006-1.159-6.013-1.743-9.018c-0.222-1.14-2.014-1.695-2.764-0.73c-3.321,4.277-7.16,7.343-11.972,9.793
		c0.026-0.095,0.113-0.153,0.119-0.259c0.296-5.693,5.669-7.772,5.686-12.843c0.003-0.768-0.535-1.421-1.252-1.644
		c-1.383-0.429-2.799-0.544-4.219-0.525c3.551-9.599,6.753-19.488,12.736-27.882c7.613-10.68,27.917-25.121,38.955-8.32
		C240.539,125.26,223.132,148.852,217.55,165.476z"/>
	<path d="M26.865,112.676c0.606-0.965,0.006-2.231-1.033-2.539c-1.685-0.499-3.05,0.16-4.517,0.86
		c-0.524-0.765-1.036-1.538-1.568-2.298c-1.286-1.84-4.052-0.264-3.025,1.768c0.353,0.7,0.724,1.389,1.084,2.085
		c-1.341,0.561-2.692,1.102-3.998,1.737c-1.846,0.898-0.542,3.796,1.377,3.266c1.508-0.416,2.986-0.941,4.47-1.444
		c0.165,0.312,0.323,0.627,0.488,0.939c1.022,1.93,1.556,3.634,3.724,4.353c0.812,0.27,1.947-0.314,2.097-1.191
		c0.393-2.294-0.783-3.517-2.031-5.377c-0.016-0.024-0.033-0.048-0.05-0.073C25.062,114.377,26.105,113.887,26.865,112.676z"/>
	<path d="M124.645,78.469c-0.766-0.096-1.629-0.049-2.456-0.067c-0.16-1.186-0.492-2.308-1.583-2.926
		c-0.148-0.084-0.376-0.108-0.522,0c-0.991,0.732-1.246,1.843-1.302,3.016c-1.194,0.11-2.403,0.221-3.483,0.444
		c-1.177,0.243-1.178,2.138,0,2.381c1.09,0.225,2.308,0.338,3.512,0.448c0.019,2.62,0.006,5.311,0.474,7.874
		c0.399,2.184,3.535,1.488,3.672-0.497c0.164-2.386-0.133-4.883-0.408-7.301c0.701-0.024,1.442,0.025,2.096-0.057
		C126.771,81.519,126.776,78.736,124.645,78.469z"/>
	<path d="M223.59,115.276c-0.571-0.943-1.51-1.573-2.597-2.058c0.082-0.352,0.203-0.695,0.267-1.051
		c0.111-0.621,0.05-1.36-0.477-1.803c-0.29-0.244-0.617-0.601-1.039-0.566c-1.337,0.112-2.05,1.096-2.578,2.254
		c-1.377-0.308-2.724-0.583-3.786-0.996c-0.003,0.019-0.005,0.039-0.009,0.058c-0.426-0.075-0.775-0.014-1.219,0.187
		c-1.014,0.46-1.195,2.13-0.365,2.834c1.038,0.881,2.351,1.411,3.653,1.917c-1.026,1.92-2.288,4.001-1.697,6.042
		c0.351,1.212,1.561,1.503,2.608,1.061c1.867-0.788,2.278-2.827,2.959-4.595c0.097-0.252,0.178-0.511,0.273-0.764
		c0.949,0.321,1.917,0.457,2.939,0.104C223.586,117.533,224.219,116.318,223.59,115.276z"/>
</svg>